<svg xmlns="http://www.w3.org/2000/svg" xmlns:xlink="http://www.w3.org/1999/xlink" width="58" height="58" viewBox="0 0 58 58">
  <defs>
    <clipPath id="clip-path">
      <rect id="Rectangle_15822" data-name="Rectangle 15822" width="58" height="58" transform="translate(418 5123)" fill="#fff" stroke="#707070" stroke-width="1"/>
    </clipPath>
    <clipPath id="clip-path-2">
      <rect id="Rectangle_15823" data-name="Rectangle 15823" width="33.379" height="47.055" fill="#0f3a53"/>
    </clipPath>
  </defs>
  <g id="_04" data-name="04" transform="translate(-418 -5123)" clip-path="url(#clip-path)">
    <g id="Group_41783" data-name="Group 41783" transform="translate(431 5128.473)" clip-path="url(#clip-path-2)">
      <path id="Path_63601" data-name="Path 63601" d="M40.9,105.388,39.684,106.6a4.689,4.689,0,0,1-4.517,1.21l-1.655-.441a4.693,4.693,0,0,0-2.414,0l-1.655.441a4.688,4.688,0,0,1-4.517-1.21l-1.213-1.209a4.686,4.686,0,0,0-.805-.64v12.1a1.6,1.6,0,0,0,2.351,1.419l7.053-3.712,6.965,3.7a1.6,1.6,0,0,0,2.356-1.417v-12.05a4.677,4.677,0,0,0-.735.6" transform="translate(-15.615 -71.404)" fill="#0f3a53"/>
      <path id="Path_63602" data-name="Path 63602" d="M32.876,17.7a3.941,3.941,0,0,1,0-2.027l.37-1.39a3.937,3.937,0,0,0-1.016-3.794L31.214,9.474A3.938,3.938,0,0,1,30.2,7.719L29.826,6.33a3.938,3.938,0,0,0-2.777-2.777L25.66,3.178A3.936,3.936,0,0,1,23.9,2.165L22.886,1.149A3.938,3.938,0,0,0,19.093.133L17.7.5a3.936,3.936,0,0,1-2.027,0l-1.39-.37a3.938,3.938,0,0,0-3.794,1.016L9.474,2.165A3.936,3.936,0,0,1,7.719,3.178L6.33,3.553A3.938,3.938,0,0,0,3.553,6.33L3.178,7.719A3.938,3.938,0,0,1,2.165,9.474L1.149,10.493A3.937,3.937,0,0,0,.133,14.286l.37,1.39A3.935,3.935,0,0,1,.5,17.7l-.37,1.39a3.937,3.937,0,0,0,1.016,3.794l1.016,1.019a3.938,3.938,0,0,1,1.013,1.756l.374,1.389A3.937,3.937,0,0,0,6.33,29.826l1.389.374a3.94,3.94,0,0,1,1.755,1.014l1.019,1.015a3.937,3.937,0,0,0,3.794,1.017l1.39-.371a3.943,3.943,0,0,1,2.027,0l1.39.371a3.937,3.937,0,0,0,3.794-1.017L23.9,31.214A3.94,3.94,0,0,1,25.66,30.2l1.389-.374a3.937,3.937,0,0,0,2.777-2.777l.374-1.389a3.938,3.938,0,0,1,1.013-1.756l1.016-1.019a3.937,3.937,0,0,0,1.016-3.794ZM26.313,13.01,15.8,23.52a2.229,2.229,0,0,1-3.151,0L7.066,17.936a2.229,2.229,0,0,1,3.151-3.152l4.009,4.009,8.935-8.935a2.228,2.228,0,0,1,3.151,3.151" transform="translate(0 0)" fill="#0f3a53"/>
    </g>
  </g>
</svg>
