<svg xmlns="http://www.w3.org/2000/svg" xmlns:xlink="http://www.w3.org/1999/xlink" width="58" height="58" viewBox="0 0 58 58">
  <defs>
    <clipPath id="clip-path">
      <rect id="Rectangle_15829" data-name="Rectangle 15829" width="58" height="58" transform="translate(418 5123)" fill="#fff" stroke="#707070" stroke-width="1"/>
    </clipPath>
    <clipPath id="clip-path-2">
      <rect id="Rectangle_15830" data-name="Rectangle 15830" width="35.262" height="45.639" fill="#0f3a53"/>
    </clipPath>
  </defs>
  <g id="_07" data-name="07" transform="translate(-418 -5123)" clip-path="url(#clip-path)">
    <g id="Group_41786" data-name="Group 41786" transform="translate(429.984 5129.073)" clip-path="url(#clip-path-2)">
      <path id="Path_63604" data-name="Path 63604" d="M.327,217.3c1.98-1.49,7.456-5.572,9.987-7.457A4.344,4.344,0,0,1,13.262,209l9.279.752a1.725,1.725,0,0,1-.03,3.441l-8.375.535a1.2,1.2,0,1,0,.209,2.4l8.74-.964a2.5,2.5,0,0,0,1.382-.613l.339-.3a3.323,3.323,0,0,0,1.094-2.888l7.16-2.222a1.691,1.691,0,0,1,1.546,2.946l-12.856,10.1a5.356,5.356,0,0,1-3.983,1.1l-7.021-.892a2.5,2.5,0,0,0-1.89.538l-1.917,1.553a.821.821,0,0,1-1.111-.072l-5.6-5.881a.82.82,0,0,1,.1-1.221" transform="translate(0 -179.02)" fill="#0f3a53"/>
      <path id="Path_63605" data-name="Path 63605" d="M179.09,74.944l-2.438.612V59.477a2.4,2.4,0,0,0-2.4-2.4h-4.926V54.638h4.926a4.844,4.844,0,0,1,4.839,4.839Z" transform="translate(-145.047 -46.804)" fill="#0f3a53"/>
      <path id="Path_63606" data-name="Path 63606" d="M53.244,138.677l-2.437,1.467V128.871l2.437,1.066Z" transform="translate(-43.522 -110.393)" fill="#0f3a53"/>
      <path id="Path_63607" data-name="Path 63607" d="M93.155,159.63H90.288a.475.475,0,0,1-.475-.475v-3.884a.412.412,0,0,1,.412-.412h2.994a.412.412,0,0,1,.412.412v3.884a.475.475,0,0,1-.475.475" transform="translate(-76.936 -132.655)" fill="#0f3a53"/>
      <path id="Path_63608" data-name="Path 63608" d="M133.411,146.008h-2.867a.475.475,0,0,1-.475-.475v-6.164a.412.412,0,0,1,.412-.412h2.994a.412.412,0,0,1,.412.412v6.164a.475.475,0,0,1-.475.475" transform="translate(-111.42 -119.033)" fill="#0f3a53"/>
      <path id="Path_63609" data-name="Path 63609" d="M176.345,131.125h-2.867a.475.475,0,0,1-.475-.475v-8.656a.412.412,0,0,1,.412-.412h2.994a.412.412,0,0,1,.412.412v8.656a.475.475,0,0,1-.475.475" transform="translate(-148.198 -104.15)" fill="#0f3a53"/>
      <path id="Path_63610" data-name="Path 63610" d="M35.728,0a9.053,9.053,0,1,0,9.053,9.053A9.053,9.053,0,0,0,35.728,0m.748,14.22h-.007v1.047a.825.825,0,1,1-1.65,0V14.215a3.071,3.071,0,0,1-2.984-3.065.825.825,0,0,1,1.65,0A1.421,1.421,0,0,0,34.9,12.569h1.572a1.419,1.419,0,1,0,0-2.838H34.6a3.069,3.069,0,0,1,0-6.139h.214V2.358a.825.825,0,1,1,1.65,0V3.607a3.073,3.073,0,0,1,2.777,3.055.825.825,0,0,1-1.65,0,1.421,1.421,0,0,0-1.419-1.419H34.6a1.419,1.419,0,0,0,0,2.838h1.871a3.069,3.069,0,1,1,0,6.139" transform="translate(-22.85 0.001)" fill="#0f3a53"/>
    </g>
  </g>
</svg>
