<svg xmlns="http://www.w3.org/2000/svg" xmlns:xlink="http://www.w3.org/1999/xlink" width="58" height="58" viewBox="0 0 58 58">
  <defs>
    <clipPath id="clip-path">
      <rect id="Rectangle_15815" data-name="Rectangle 15815" width="58" height="58" transform="translate(418 5123)" fill="#fff" stroke="#707070" stroke-width="1"/>
    </clipPath>
    <clipPath id="clip-path-2">
      <rect id="Rectangle_14471" data-name="Rectangle 14471" width="47.168" height="23.692" fill="#0f3a53"/>
    </clipPath>
  </defs>
  <g id="_01" data-name="01" transform="translate(-418 -5123)" clip-path="url(#clip-path)">
    <g id="Group_40386" data-name="Group 40386" transform="translate(423.416 5140)">
      <g id="Group_40385" data-name="Group 40385" transform="translate(0 0)" clip-path="url(#clip-path-2)">
        <path id="Path_39735" data-name="Path 39735" d="M47.157,21.3a23.694,23.694,0,0,0-47.146,0,2.2,2.2,0,0,0,2.2,2.391H20.88a2.7,2.7,0,0,1,2.387-2.684l4.179-9.432A1.453,1.453,0,0,1,30.1,12.754l-4.219,9.522a2.688,2.688,0,0,1,.4,1.417H44.959a2.2,2.2,0,0,0,2.2-2.391M6.924,18.271a.727.727,0,0,1-.95.391l-2.087-.869a.726.726,0,1,1,.558-1.341l2.087.869a.727.727,0,0,1,.391.95M12.738,9.3a.726.726,0,0,1-1.027,0l-1.6-1.6A.726.726,0,0,1,11.14,6.679l1.6,1.6a.727.727,0,0,1,0,1.027M24.311,4.989a.727.727,0,1,1-1.453,0V2.729a.727.727,0,1,1,1.453,0ZM36.975,7.707l-1.6,1.6a.726.726,0,0,1-1.027-1.027l1.6-1.6a.726.726,0,1,1,1.027,1.027m6.246,10.087-2.087.869a.726.726,0,0,1-.558-1.341l2.087-.869a.727.727,0,1,1,.559,1.341" transform="translate(0 0)" fill="#0f3a53"/>
      </g>
    </g>
  </g>
</svg>
