<svg xmlns="http://www.w3.org/2000/svg" xmlns:xlink="http://www.w3.org/1999/xlink" width="58" height="58" viewBox="0 0 58 58">
  <defs>
    <clipPath id="clip-path">
      <rect id="Rectangle_15825" data-name="Rectangle 15825" width="58" height="58" transform="translate(418 5123)" fill="#fff" stroke="#707070" stroke-width="1"/>
    </clipPath>
    <clipPath id="clip-path-2">
      <rect id="Rectangle_15826" data-name="Rectangle 15826" width="43.067" height="43.067" fill="#0f3a53"/>
    </clipPath>
  </defs>
  <g id="_05" data-name="05" transform="translate(-418 -5123)" clip-path="url(#clip-path)">
    <g id="Group_41784" data-name="Group 41784" transform="translate(425.467 5130.467)" clip-path="url(#clip-path-2)">
      <path id="Path_63603" data-name="Path 63603" d="M21.533,0A21.533,21.533,0,1,0,43.067,21.533,21.533,21.533,0,0,0,21.533,0m11.34,29.3a2.165,2.165,0,1,1-4.33,0V17.618L13.889,32.272a2.165,2.165,0,0,1-3.062-3.062l14.72-14.72H13.731a2.165,2.165,0,0,1,0-4.33h16.9A2.3,2.3,0,0,1,32.873,12.4Z" fill="#0f3a53"/>
    </g>
  </g>
</svg>
