<svg xmlns="http://www.w3.org/2000/svg" xmlns:xlink="http://www.w3.org/1999/xlink" width="58" height="58" viewBox="0 0 58 58">
  <defs>
    <clipPath id="clip-path">
      <rect id="Rectangle_15828" data-name="Rectangle 15828" width="58" height="58" transform="translate(418 5123)" fill="#fff" stroke="#707070" stroke-width="1"/>
    </clipPath>
  </defs>
  <g id="_06" data-name="06" transform="translate(-418 -5123)" clip-path="url(#clip-path)">
    <g id="Group_41785" data-name="Group 41785" transform="translate(431.454 5129.846)">
      <path id="Path_39741" data-name="Path 39741" d="M27.1,0H3.992A4,4,0,0,0,0,3.993V40.316a4,4,0,0,0,3.992,3.992H27.1a4,4,0,0,0,3.992-3.992V3.993A4,4,0,0,0,27.1,0M15.547,40.128a10.4,10.4,0,1,1,10.405-10.4,10.4,10.4,0,0,1-10.405,10.4m8.429-23.295H7.118a2.238,2.238,0,0,1,0-4.477H23.975a2.238,2.238,0,0,1,0,4.477m0-7.92H7.118a2.238,2.238,0,0,1,0-4.477H23.975a2.238,2.238,0,0,1,0,4.477" transform="translate(0 0)" fill="#0f3a53"/>
      <path id="Path_39742" data-name="Path 39742" d="M17.1,44.682a2.059,2.059,0,0,1-1.456-.6l-3.556-3.556A2.06,2.06,0,0,1,15,37.609l2.1,2.1,5.185-5.184A2.059,2.059,0,0,1,25.2,37.437l-6.641,6.642a2.059,2.059,0,0,1-1.456.6" transform="translate(-3.096 -9.145)" fill="#0f3a53"/>
    </g>
  </g>
</svg>
