<?xml version="1.0" encoding="UTF-8"?>
<!DOCTYPE svg PUBLIC "-//W3C//DTD SVG 1.1//EN" "http://www.w3.org/Graphics/SVG/1.1/DTD/svg11.dtd">
<!-- Creator: CorelDRAW 2021.5 -->
<svg xmlns="http://www.w3.org/2000/svg" xml:space="preserve" width="103.887mm" height="31.4062mm" version="1.1" style="shape-rendering:geometricPrecision; text-rendering:geometricPrecision; image-rendering:optimizeQuality; fill-rule:evenodd; clip-rule:evenodd"
viewBox="0 0 10374.44 3136.31"
 xmlns:xlink="http://www.w3.org/1999/xlink"
 xmlns:xodm="http://www.corel.com/coreldraw/odm/2003">
 <defs>
  <style type="text/css">
   <![CDATA[
    .fil1 {fill:#FEFEFE}
    .fil0 {fill:#0F7350}
    .fil2 {fill:#0F7350}
    .fil3 {fill:#FEFEFE;fill-rule:nonzero}
    .fil4 {fill:#0F7350;fill-rule:nonzero}
   ]]>
  </style>
 </defs>
 <g id="Layer_x0020_1">
  <metadata id="CorelCorpID_0Corel-Layer"/>
  <g id="_2291008728384">
   <polygon class="fil0" points="5016.08,432.8 4453.2,1483.82 4175.48,1483.82 4413.27,1037.63 4075.3,432.8 4362.77,432.8 4550.06,792.13 4731.93,432.8 "/>
   <path class="fil0" d="M5973.95 500.84c0,97.38 -31.95,180.58 -95.81,250.14 -77.28,84.49 -185.75,126.72 -324.85,126.72 -139.87,0 -248.6,-42.22 -325.86,-126.72 -63.9,-69.55 -95.84,-154.83 -95.84,-256.06 0,-18.79 1.36,-37.15 4.1,-55.05l-294.91 -217.15 418.04 0c75.33,-65.14 176.11,-97.73 301.93,-97.73 115.7,0 211.05,32.59 285.91,97.73l418.16 0 -295.4 217.52c3.04,19.58 4.54,39.78 4.54,60.61zm-258.1 0l0 0c0,-45.33 -15.99,-83.72 -47.67,-115.14 -31.69,-31.69 -70.07,-47.41 -114.89,-47.41 -51,0 -92.48,19.07 -124.69,57.45 -26.01,30.93 -38.89,65.94 -38.89,105.11 0,39.93 12.87,75.21 38.89,106.13 32.21,38.38 73.69,57.45 124.69,57.45 45.34,0 83.73,-15.73 115.39,-47.4 31.44,-31.44 47.18,-70.06 47.18,-116.18z"/>
   <path class="fil0" d="M6845.11 1132.95l-248.88 0 0 -77.27c-23.43,29.62 -47.37,51.26 -71.34,64.91 -41.99,23.7 -89.92,35.56 -143.49,35.56 -86.54,0 -163.83,-29.9 -231.32,-89.64 -80.62,-71.38 -121.07,-165.91 -121.07,-283.65 0,-119.54 41.19,-215.1 123.91,-286.46 65.68,-56.91 141.17,-85.25 226.18,-85.25 49.71,0 96.08,10.81 139.88,32.46 24.99,12.1 50.75,31.96 77.26,59.5l0 -503.11 248.88 0 0 1132.95zm-241.14 -349.3l0 0c0,-44.31 -15.46,-81.93 -46.37,-112.84 -30.92,-30.92 -68.28,-46.38 -112.05,-46.38 -48.69,0 -88.9,18.55 -120.31,55.91 -25.49,30.14 -38.13,64.64 -38.13,103.3 0,38.62 12.64,73.16 38.13,103.29 30.92,37.35 71.09,55.9 120.31,55.9 44.31,0 81.91,-15.46 112.57,-46.12 30.65,-30.66 45.85,-68.26 45.85,-113.07z"/>
   <path class="fil0" d="M7712.03 1132.95l-248.85 0 0 -77.27c-23.45,29.62 -47.39,51.26 -71.37,64.91 -41.98,23.7 -89.91,35.56 -143.47,35.56 -86.54,0 -163.83,-29.9 -231.32,-89.64 -80.63,-71.38 -121.07,-165.91 -121.07,-283.65 0,-119.54 41.2,-215.1 123.89,-286.46 65.7,-56.91 141.19,-85.25 226.19,-85.25 49.71,0 96.07,10.3 139.87,30.91 25.01,12.1 50.75,31.94 77.29,59.5l0 -68.77 248.85 0 0 700.16zm-241.13 -350.09l0 0c0,-44.03 -15.47,-81.39 -46.35,-112.31 -30.93,-30.66 -68.29,-46.12 -112.08,-46.12 -48.68,0 -88.88,18.55 -120.29,55.64 -25.5,29.88 -38.13,64.14 -38.13,102.78 0,38.66 12.63,72.89 38.13,102.79 30.93,37.1 71.1,55.65 120.29,55.65 44.33,0 81.93,-15.22 112.57,-45.88 30.68,-30.38 45.86,-68.01 45.86,-112.57z"/>
   <g>
    <path class="fil1" d="M8606.78 784.4c0,119.54 -41.21,215.11 -123.91,286.47 -65.69,56.94 -141.16,85.28 -226.17,85.28 -49.72,0 -96.12,-10.83 -139.89,-32.46 -25,-12.12 -50.74,-31.95 -77.28,-59.51l0 419.63 -248.85 0 0 -1051.03 248.85 0 0 78.81c22.15,-29.09 45.86,-50.75 71.37,-64.92 41.97,-23.68 89.89,-35.53 143.48,-35.53 86.54,0 163.83,29.88 231.31,89.64 80.63,71.36 121.08,165.9 121.08,283.61zm-258.13 -0.75l0 0c0,-39.68 -12.37,-74.21 -37.36,-103.3 -31.43,-37.36 -71.87,-55.91 -121.07,-55.91 -44.32,0 -81.91,15.46 -112.57,46.12 -30.67,30.65 -45.85,68.28 -45.85,113.09 0,44.3 15.43,81.92 46.36,112.84 30.91,30.9 68.26,46.36 112.06,46.36 49.2,0 89.4,-18.55 120.29,-55.9 25.51,-30.13 38.14,-64.67 38.14,-103.29z"/>
    <polygon class="fil1" points="8906.47,1132.95 8657.63,1132.95 8657.63,0 8906.47,0 "/>
    <path class="fil1" d="M9729.07 877.67c0,130.36 -61.59,216.91 -184.97,259.68 -51.27,17.76 -113.86,26.53 -187.8,26.53 -145.56,0 -249.89,-35.82 -313.51,-107.18 -40.18,-45.33 -60.29,-105.11 -60.29,-179.03l0 -444.87 248.87 0 0 397.21c0,43.8 10.57,76 31.42,96.62 22.4,22.14 53.6,33.21 93.23,33.21 39.45,0 70.33,-11.07 92.75,-33.21 20.86,-20.62 31.44,-52.82 31.44,-96.62l0 -397.21 248.86 0 0 444.87z"/>
    <path class="fil1" d="M10374.43 897.25c0,74.2 -26.79,134.99 -80.13,182.13 -60.01,53.31 -144.25,79.84 -253.23,79.84 -96.07,0 -189.59,-26.76 -280.26,-80.35l89.64 -174.68c70.84,45.37 136.77,68.02 197.58,68.02 51.8,0 77.53,-17.78 77.53,-53.07 0,-18.53 -9.02,-32.7 -27.03,-42.74 -11.58,-6.47 -37.61,-14.18 -78.31,-23.2 -45.6,-10.05 -75.49,-17.78 -89.4,-23.44 -50.22,-19.58 -83.98,-50.23 -101.49,-91.7 -9.54,-22.68 -14.44,-49.72 -14.44,-81.41 0,-61.3 20.88,-114.9 62.6,-160.48 54.11,-58.75 137.05,-88.11 249.37,-88.11 78.06,0 154.06,14.95 227.49,44.82l-83.49 159.2c-46.11,-23.71 -90.43,-35.56 -132.66,-35.56 -49.72,0 -74.47,17.54 -74.47,52.56 0,15.97 10.07,28.86 30.15,38.65 9,4.63 35.56,11.33 79.6,20.36 64.92,13.39 112.34,35.02 142.97,64.64 38.63,37.09 57.97,85.27 57.97,144.52z"/>
    <polygon class="fil1" points="5839.96,1152.23 5265.64,1152.23 5265.64,997.96 5839.96,997.96 "/>
   </g>
   <path class="fil2" d="M2121.06 1991.91l160.26 91.25 157.9 89.9c72.49,41.28 114.12,112.89 114.12,196.31l0 178.45 0 178.45c0,83.43 -41.63,155.03 -114.12,196.31l-157.9 89.91 -160.26 91.23c-71.25,40.57 -152.28,40.57 -223.54,0l-160.25 -91.23 -157.9 -89.91c-72.5,-41.28 -114.12,-112.89 -114.12,-196.31l0 -178.45 0 -178.45c0,-83.43 41.62,-155.03 114.12,-196.31l157.9 -89.9 160.25 -91.25c71.26,-40.57 152.29,-40.57 223.54,0zm-6.13 568.98c-18.5,10.19 -30,29.63 -30,50.74l0 265.06c0,33.79 27.73,57.98 57.97,57.98 9.65,0 19.55,-2.47 28.89,-7.86l217.66 -125.9c17.9,-10.33 28.91,-29.44 28.91,-50.1l0 -258.81c0,-44.02 -47.18,-71.92 -85.77,-50.73l-217.66 119.63zm-176.47 51.95c0,-21.2 -11.59,-40.71 -30.23,-50.85l-222.28 -120.96c-38.59,-21.01 -85.56,6.92 -85.56,50.83l0 259.03c0,20.66 11.01,39.78 28.91,50.1l222.27 128.59c9.36,5.39 19.25,7.86 28.9,7.86 30.24,0 57.99,-24.19 57.99,-57.98l0 -266.62zm315.34 -295.63c39.51,-21.71 40.12,-78.26 1.09,-100.84l-216.56 -125.26c-17.93,-10.37 -40.03,-10.37 -57.95,0l-216.36 125.11c-39.13,22.63 -38.39,79.37 1.32,100.96l217.7 118.45c8.64,4.68 18.15,7.03 27.68,7.03 9.6,0 19.19,-2.39 27.86,-7.15l215.22 -118.3z"/>
   <path class="fil3" d="M-0 3100.19l0 -1616.35 494.39 0c246.81,0 445.09,74.5 594.84,223.49 149.74,149 224.61,343.89 224.61,584.69 0,242.3 -74.87,437.57 -224.61,585.81 -149.75,148.25 -348.03,222.36 -594.84,222.36l-494.39 0zm207.68 -1417.69l0 1219.04 286.71 0c188.12,0 336.36,-53.81 444.72,-161.41 108.36,-107.6 162.54,-256.98 162.54,-448.1 0,-189.63 -54.18,-338.63 -162.54,-446.99 -108.36,-108.35 -256.6,-162.54 -444.72,-162.54l-286.71 0z"/>
   <g>
    <path class="fil3" d="M3251.21 3136.31c-164.04,0 -300.25,-55.68 -408.6,-167.05 -106.85,-114.38 -160.28,-255.1 -160.28,-422.15 0,-170.07 53.43,-310.77 160.28,-422.15 108.35,-111.37 244.55,-167.05 408.6,-167.05 112.88,0 211.45,28.22 295.72,84.65 84.28,56.44 147.49,134.33 189.63,233.65l-189.63 79.01c-58.69,-138.46 -161.78,-207.68 -309.27,-207.68 -94.82,0 -176.84,38.38 -246.07,115.13 -67.72,76.75 -101.58,171.56 -101.58,284.44 0,112.88 33.86,207.68 101.58,284.44 69.23,76.75 151.25,115.13 246.07,115.13 152,0 258.85,-69.22 320.56,-207.68l185.11 79.01c-40.63,99.32 -104.22,177.21 -190.75,233.65 -86.54,56.43 -186.99,84.65 -301.38,84.65zm1607.47 -36.12l-198.66 0 0 -153.51 -9.04 0c-31.6,54.18 -80.14,99.33 -145.6,135.45 -65.47,36.11 -133.57,54.18 -204.3,54.18 -135.45,0 -239.67,-38.76 -312.66,-116.26 -72.99,-77.5 -109.49,-187.74 -109.49,-330.72l0 -695.31 207.68 0 0 681.75c4.51,180.6 95.57,270.9 273.16,270.9 82.78,0 152,-33.48 207.68,-100.45 55.68,-66.98 83.53,-147.12 83.53,-240.42l0 -611.78 207.69 0 0 1106.16zm1607.61 0l-207.68 0 0 -1106.16 198.66 0 0 180.6 9.03 0c21.07,-58.7 64.34,-108.74 129.81,-150.12 65.46,-41.39 129.8,-62.08 193.02,-62.08 60.2,0 111.37,9.03 153.5,27.09l-63.2 200.91c-25.58,-10.54 -66.22,-15.8 -121.9,-15.8 -78.26,0 -146.36,31.6 -204.3,94.81 -57.94,63.21 -86.92,136.95 -86.92,221.24l0 609.51zm681.91 -338.63c0,54.19 22.95,99.33 68.86,135.45 45.9,36.12 99.7,54.18 161.41,54.18 87.29,0 165.17,-32.36 233.65,-97.07 68.48,-64.72 102.71,-140.72 102.71,-228.01 -64.71,-51.17 -155.01,-76.75 -270.9,-76.75 -84.27,0 -154.63,20.32 -211.07,60.96 -56.43,40.63 -84.65,91.05 -84.65,151.24zm268.64 -803.66c153.51,0 274.65,41.01 363.45,123.03 88.8,82.03 133.19,194.52 133.19,337.5l0 681.75 -198.66 0 0 -153.51 -9.03 0c-85.78,126.42 -200.17,189.63 -343.14,189.63 -121.9,0 -223.86,-36.12 -305.88,-108.36 -82.03,-72.24 -123.03,-162.54 -123.03,-270.9 0,-114.37 43.26,-205.43 129.8,-273.16 86.53,-67.72 202.04,-101.58 346.52,-101.58 123.4,0 224.99,22.57 304.75,67.73l0 -47.41c0,-72.23 -28.59,-133.57 -85.78,-183.98 -57.19,-50.42 -124.16,-75.63 -200.91,-75.63 -115.88,0 -207.68,48.91 -275.41,146.74l-182.85 -115.13c100.83,-144.48 249.82,-216.72 446.98,-216.72zm1180.81 988.77c102.34,0 185.86,-36.87 250.58,-110.62 67.73,-73.74 101.59,-170.06 101.59,-288.95 0,-115.88 -33.86,-211.45 -101.59,-286.7 -66.22,-75.25 -149.74,-112.88 -250.58,-112.88 -99.33,0 -182.86,37.63 -250.59,112.88 -67.72,75.25 -101.58,170.82 -101.58,286.7 0,117.39 33.86,212.96 101.58,286.7 67.73,75.26 151.25,112.88 250.59,112.88zm-33.86 189.63c-144.48,0 -268.64,-57.19 -372.49,-171.56 -102.33,-115.89 -153.5,-255.1 -153.5,-417.64 0,-162.54 51.17,-301.75 153.5,-417.64 103.85,-114.37 228.01,-171.56 372.49,-171.56 81.27,0 155.39,17.31 222.35,51.92 66.98,34.62 118.52,80.52 154.64,137.71l9.04 0 -9.04 -153.51 0 -510.19 207.69 0 0 1616.35 -198.66 0 0 -153.51 -9.04 0c-36.12,57.19 -87.66,103.09 -154.64,137.71 -66.97,34.61 -141.09,51.92 -222.35,51.92zm1286.91 0c-162.54,0 -296.48,-55.68 -401.83,-167.05 -105.36,-111.37 -158.02,-252.08 -158.02,-422.15 0,-168.56 51.17,-308.9 153.5,-421.02 102.34,-112.12 233.28,-168.18 392.8,-168.18 164.04,0 294.61,53.05 391.67,159.15 97.08,106.1 145.61,254.72 145.61,445.85l-2.26 22.58 -869.13 0c3.01,108.36 39.13,195.65 108.36,261.87 69.22,66.22 152,99.32 248.32,99.32 132.44,0 236.29,-66.22 311.53,-198.66l185.12 90.3c-49.67,93.31 -118.52,166.3 -206.57,218.98 -88.04,52.68 -187.74,79.01 -299.11,79.01zm-331.85 -722.39l634.35 0c-6.01,-76.75 -37.25,-140.35 -93.68,-190.76 -56.43,-50.42 -132.06,-75.63 -226.88,-75.63 -78.25,0 -145.6,24.08 -202.04,72.24 -56.43,48.15 -93.68,112.88 -111.75,194.14z"/>
    <polygon class="fil4" points="5662.49,1682.5 5662.49,3100.19 5454.8,3100.19 5454.8,1682.5 5003.3,1682.5 5003.3,1483.84 6113.98,1483.84 6113.98,1682.5 "/>
   </g>
  </g>
 </g>
</svg>
