<svg xmlns="http://www.w3.org/2000/svg" width="481" height="481" viewBox="0 0 481 481">
  <g id="Group_41776" data-name="Group 41776" transform="translate(-292 -5649)">
    <g id="Group_40400" data-name="Group 40400" transform="translate(0 425)">
      <ellipse id="Ellipse_270" data-name="Ellipse 270" cx="17.5" cy="20.5" rx="17.5" ry="20.5" transform="translate(403 5431)" fill="#fff"/>
      <g id="XDClogo" transform="translate(386.441 5419.5)">
        <g id="Group_40384" data-name="Group 40384">
          <path id="Path_1" data-name="Path 1" d="M490.572,0h17.4C515.059,0,523.4,2.092,528.8,6.254a26.7,26.7,0,0,1,10.769,20.935V41.573c0,16.793-17.192,28.073-31.6,28.073h-17.4L479.661,54.9h28.307c6.165,0,15.083-5.926,15.083-14.509V28.368c0-9.066-9.252-13.624-15.083-13.624H479.661Z" transform="translate(-338.218)" fill="#fff"/>
          <path id="Path_2" data-name="Path 2" d="M702.06,41.278V29.253c0-8.583,8.918-14.509,15.083-14.509h34.205L740.437,0H717.142C706,0,693.2,6.748,687.965,17.573a26.306,26.306,0,0,1,1.646,9.115V42.015a25.449,25.449,0,0,1-2.083,10.11,28.162,28.162,0,0,0,8.787,11.268c5.4,4.162,13.736,6.254,20.827,6.254h23.295L751.348,54.9H717.142c-5.831,0-15.083-4.558-15.083-13.624" transform="translate(-484.789)" fill="#fff"/>
          <path id="Path_3" data-name="Path 3" d="M267.958,71.443l-18.882-.032L304.689,3.1l19.265-.062Z" transform="translate(-175.628 -2.144)" fill="#fff"/>
          <path id="Path_4" data-name="Path 4" d="M306.073,71.443l18.882-.032L269.341,3.1l-19.266-.062Z" transform="translate(-176.333 -2.144)" fill="#fff"/>
          <path id="Path_5" data-name="Path 5" d="M439.5,58.613l-14.2,17.063,14.2,17.15Z" transform="translate(-299.891 -41.329)" fill="#4669a8"/>
          <path id="Path_6" data-name="Path 6" d="M258.214,267.548h-2.942V254.023H250.56v-2.41h12.366v2.41h-4.712Z" transform="translate(-176.675 -177.417)" fill="#fff"/>
          <path id="Path_7" data-name="Path 7" d="M305.656,251.612a8.013,8.013,0,0,1,4.792,1.161,4.73,4.73,0,0,1,1.1,5.513,4.278,4.278,0,0,1-1.161,1.373,6.551,6.551,0,0,1-1.54.881l4.712,7.008h-3.31l-3.93-6.294h-2.39v6.294H300.99V251.612ZM305.472,254h-1.54v4.91h1.632a4.308,4.308,0,0,0,2.632-.636,2.244,2.244,0,0,0,.816-1.886,2.012,2.012,0,0,0-.862-1.842,5.12,5.12,0,0,0-2.678-.547" transform="translate(-212.234 -177.416)" fill="#fff"/>
          <path id="Path_8" data-name="Path 8" d="M356.367,267.388l-1.494-4.218H348.69l-1.471,4.218h-3.126l6.022-16h3.355l6.022,16Zm-3.677-10.78q-.092-.312-.276-.848t-.356-1.1q-.173-.569-.265-.949-.115.447-.287,1.027t-.333,1.094q-.161.513-.23.781l-1.448,4.107h4.62Z" transform="translate(-242.626 -177.256)" fill="#fff"/>
          <path id="Path_9" data-name="Path 9" d="M417.065,259.423q0,4.04-2.321,6.082a9.487,9.487,0,0,1-6.481,2.042h-4.62V251.612h5.1a10.14,10.14,0,0,1,4.4.893,6.559,6.559,0,0,1,2.9,2.623,8.319,8.319,0,0,1,1.023,4.3m-3.08.089a5.714,5.714,0,0,0-1.345-4.2,5.288,5.288,0,0,0-3.9-1.339h-2.161v11.182h1.77q5.631,0,5.631-5.647" transform="translate(-284.616 -177.416)" fill="#fff"/>
          <path id="Path_10" data-name="Path 10" d="M470.34,267.548h-9.331V251.612h9.331V254H463.95v4.062h5.976v2.388H463.95v4.687h6.389Z" transform="translate(-325.066 -177.417)" fill="#fff"/>
          <path id="Path_11" data-name="Path 11" d="M538.718,267.548h-3.655l-7.769-12.5H527.2q.069,1,.126,2.154t.08,2.31v8.035h-2.643V251.612H528.4l7.746,12.409h.069q-.046-.893-.092-2.053t-.069-2.254v-8.1h2.666Z" transform="translate(-370.022 -177.416)" fill="#fff"/>
          <path id="Path_12" data-name="Path 12" d="M595.907,267.548h-9.332V251.612h9.332V254h-6.39v4.062h5.976v2.388h-5.976v4.687h6.39Z" transform="translate(-413.605 -177.417)" fill="#fff"/>
          <path id="Path_13" data-name="Path 13" d="M631.719,267.548h-2.942V254.023h-4.712v-2.41h12.365v2.41h-4.712Z" transform="translate(-440.041 -177.417)" fill="#fff"/>
          <path id="Path_14" data-name="Path 14" d="M689.31,251.612l-4.252,15.936h-3.241l-2.6-9.151q-.138-.446-.3-1.149t-.3-1.373q-.138-.67-.184-.982-.047.313-.172.971t-.3,1.373q-.172.714-.311,1.205l-2.528,9.106h-3.264l-4.229-15.936h2.942l2.252,9.084q.161.58.31,1.317t.287,1.462q.138.725.207,1.261.069-.558.207-1.295t.3-1.44q.16-.7.3-1.194l2.575-9.2h2.85l2.62,9.218q.161.491.322,1.216t.3,1.44q.138.714.207,1.25.069-.558.2-1.272t.288-1.451q.161-.737.322-1.317l2.252-9.084Z" transform="translate(-470.763 -177.416)" fill="#fff"/>
          <path id="Path_15" data-name="Path 15" d="M760.791,258.971a10.338,10.338,0,0,1-.839,4.319,6.3,6.3,0,0,1-2.563,2.868,9.628,9.628,0,0,1-8.653,0,6.307,6.307,0,0,1-2.552-2.879,10.413,10.413,0,0,1-.839-4.33,10.281,10.281,0,0,1,.839-4.3,6.255,6.255,0,0,1,2.552-2.857,8.434,8.434,0,0,1,4.355-1.016A8.335,8.335,0,0,1,757.4,251.8a6.26,6.26,0,0,1,2.552,2.857,10.339,10.339,0,0,1,.839,4.319m-12.342,0a7.167,7.167,0,0,0,1.1,4.241,4.8,4.8,0,0,0,7.045,0,8.822,8.822,0,0,0,.012-8.481,3.994,3.994,0,0,0-3.517-1.54,4.061,4.061,0,0,0-3.528,1.54,7.113,7.113,0,0,0-1.114,4.241" transform="translate(-525.558 -176.83)" fill="#fff"/>
          <path id="Path_16" data-name="Path 16" d="M814.238,251.612a8.015,8.015,0,0,1,4.792,1.161,4.73,4.73,0,0,1,1.1,5.513,4.278,4.278,0,0,1-1.161,1.373,6.558,6.558,0,0,1-1.54.881l4.712,7.008h-3.31l-3.93-6.294h-2.391v6.294h-2.942V251.612ZM814.054,254h-1.54v4.91h1.632a4.309,4.309,0,0,0,2.631-.636,2.245,2.245,0,0,0,.816-1.886,2.012,2.012,0,0,0-.862-1.842,5.118,5.118,0,0,0-2.677-.547" transform="translate(-570.845 -177.416)" fill="#fff"/>
          <path id="Path_17" data-name="Path 17" d="M872.656,267.548h-3.379l-4.872-7.053-1.54,1.183v5.87h-2.942V251.612h2.942v7.5q.46-.558.942-1.138l.966-1.16,4.436-5.2h3.332l-6.022,7.008Z" transform="translate(-606.348 -177.416)" fill="#fff"/>
          <path id="Path_18" data-name="Path 18" d="M69.405,31.387c-7.973-46.2-68.3-37.26-69.379,0C3.508,33.194,5.7,34.293,5.7,34.293S3.849,35.4,0,37.862c6.952,45.3,66.241,38.716,69.4-.052-3.767-2.31-5.826-3.531-5.826-3.531s1.755-.847,5.83-2.891M39.723,47.52l-5.659-9.728-5.75,9.728-4.344-.3,8.185-13.8L24.778,21.515l4.446-.4,5.254,8.836,5.255-8.437,4.142.1L37,33.329l7.579,14.1Z" transform="translate(0 0)" fill="#b7b5b1"/>
          <path id="Path_19" data-name="Path 19" d="M73.311,36.249C62.5-4.8,12.954,6.307,9.559,36.249c6.875,3.869,8.435,4.777,8.435,4.777s-2.657,1.7-8.459,5.384c7.374,39.46,60.835,31.883,63.764-.048-5.4-3.381-8.578-5.354-8.578-5.354s7.277-4.063,8.59-4.759M46.443,54.22,40.785,44.5l-5.75,9.716-4.344-.3,8.183-13.795L31.488,28.218l4.446-.4,5.253,8.834,5.254-8.435,4.142.1L43.712,40.03l7.576,14.093Z" transform="translate(-6.723 -6.676)" fill="#244b81"/>
        </g>
      </g>
    </g>
    <g id="Ellipse_271" data-name="Ellipse 271" transform="translate(292 5649)" fill="none" stroke="#185f6b" stroke-width="1" stroke-dasharray="6">
      <circle cx="240.5" cy="240.5" r="240.5" stroke="none"/>
      <circle cx="240.5" cy="240.5" r="240" fill="none"/>
    </g>
    <circle id="Ellipse_272" data-name="Ellipse 272" cx="11" cy="11" r="11" transform="translate(738 5986)" fill="#b8d200"/>
    <circle id="Ellipse_273" data-name="Ellipse 273" cx="11" cy="11" r="11" transform="translate(354 5713)" fill="#b8d200"/>
  </g>
</svg>
